<svg width="24" height="24" viewBox="0 0 24 24" fill="none" xmlns="http://www.w3.org/2000/svg">
<path d="M23.5 1.66665C23.4879 1.55948 23.4644 1.45389 23.43 1.35165V1.24665C23.3741 1.11681 23.295 0.998218 23.1967 0.896652C23.0977 0.803628 22.9832 0.728612 22.8583 0.674986H22.7533C22.6458 0.592864 22.5228 0.533337 22.3917 0.499986H22.3333C22.2173 0.482386 22.0993 0.482386 21.9833 0.499986L0.983344 7.49999C0.749931 7.5767 0.546697 7.72516 0.402618 7.92417C0.258539 8.12319 0.180969 8.36262 0.180969 8.60832C0.180969 8.85402 0.258539 9.09344 0.402618 9.29246C0.546697 9.49148 0.749931 9.63993 0.983344 9.71665L10.935 13.03L14.2483 22.9817C14.3251 23.2151 14.4735 23.4183 14.6725 23.5624C14.8716 23.7065 15.111 23.784 15.3567 23.784C15.6024 23.784 15.8418 23.7065 16.0408 23.5624C16.2398 23.4183 16.3883 23.2151 16.465 22.9817L23.465 1.98165C23.4909 1.87873 23.5027 1.77276 23.5 1.66665ZM18.0167 4.33832L11.5183 10.8367L5.02001 8.66665L18.0167 4.33832ZM15.3333 18.98L13.1633 12.4817L19.6617 5.98332L15.3333 18.98Z" fill="#555"/>
</svg>
